<svg width="400" height="400" viewBox="0 0 400 400" fill="none" xmlns="http://www.w3.org/2000/svg">
<rect x="320" y="290" width="10" height="10" fill="black"/>
<rect x="60" y="110" width="10" height="180" fill="black"/>
<rect x="70" y="100" width="10" height="10" fill="black"/>
<rect x="80" y="90" width="240" height="10" fill="black"/>
<rect x="320" y="100" width="10" height="10" fill="black"/>
<rect x="330" y="110" width="10" height="180" fill="black"/>
<rect x="70" y="290" width="10" height="10" fill="black"/>
<rect x="120" y="320" width="10" height="10" fill="black"/>
<rect x="120" y="330" width="10" height="10" fill="black"/>
<rect x="110" y="330" width="10" height="10" fill="black"/>
<rect x="150" y="310" width="10" height="10" fill="black"/>
<rect x="140" y="320" width="10" height="10" fill="black"/>
<rect x="130" y="330" width="10" height="10" fill="black"/>
<rect x="80" y="300" width="40" height="10" fill="black"/>
<rect x="120" y="310" width="10" height="10" fill="black"/>
<rect x="160" y="300" width="160" height="10" fill="black"/>
<rect x="70" y="110" width="10" height="180" fill="#FDFCB7"/>
<rect x="320" y="110" width="10" height="180" fill="#FDFCB7"/>
<rect x="120" y="300" width="40" height="10" fill="#FDFCB7"/>
<rect x="130" y="310" width="20" height="10" fill="#FDFCB7"/>
<rect x="130" y="320" width="10" height="10" fill="#FDFCB7"/>
<rect x="80" y="100" width="240" height="200" fill="#FDFCB7"/>
<rect x="110" y="147" width="180" height="15" fill="black"/>
<rect x="110" y="177" width="180" height="15" fill="black"/>
<rect x="110" y="207" width="180" height="15" fill="black"/>
<rect x="110" y="237" width="180" height="15" fill="black"/>
</svg>
