<svg width="400" height="400" viewBox="0 0 400 400" fill="none" xmlns="http://www.w3.org/2000/svg">
<mask id="path-1-inside-1_7_53" fill="white">
<path d="M40 40H360V305H40V40Z"/>
</mask>
<path d="M40 40H360V305H40V40Z" fill="#8F828F"/>
<path d="M360 305V315H370V305H360ZM350 40V305H370V40H350ZM360 295H40V315H360V295Z" fill="black" mask="url(#path-1-inside-1_7_53)"/>
<rect x="50" y="50" width="290" height="235" fill="#BFB8BF"/>
<path d="M60 110H330V275H60V110Z" fill="black"/>
<rect x="50" y="50" width="290" height="50" fill="#0000A6"/>
<rect x="220" y="60" width="30" height="30" fill="black"/>
<rect x="220" y="60" width="25" height="25" fill="#BFB8BF"/>
<rect x="260" y="60" width="30" height="30" fill="black"/>
<rect x="260" y="60" width="25" height="25" fill="#BFB8BF"/>
<rect x="300" y="60" width="30" height="30" fill="black"/>
<rect x="300" y="60" width="25" height="25" fill="#BFB8BF"/>
<rect x="80" y="130" width="210" height="15" fill="#7F787F"/>
<rect x="80" y="165" width="170" height="15" fill="#7F787F"/>
<rect x="80" y="200" width="130" height="15" fill="#7F787F"/>
</svg>
